<mxfile host="Electron" agent="Mozilla/5.0 (Macintosh; Intel Mac OS X 10_15_7) AppleWebKit/537.36 (KHTML, like Gecko) draw.io/26.0.16 Chrome/132.0.6834.196 Electron/34.2.0 Safari/537.36" version="26.0.16">
  <diagram name="第 1 页" id="GR8Q-On7Hyz9qMk20Kyl">
    <mxGraphModel dx="1720" dy="1282" grid="1" gridSize="10" guides="1" tooltips="1" connect="1" arrows="1" fold="1" page="1" pageScale="1" pageWidth="827" pageHeight="1169" math="0" shadow="0">
      <root>
        <mxCell id="0" />
        <mxCell id="1" parent="0" />
        <mxCell id="TkcA2Pwc8MpIF1o2tBOf-8" style="edgeStyle=orthogonalEdgeStyle;rounded=0;orthogonalLoop=1;jettySize=auto;html=1;exitX=1;exitY=1;exitDx=0;exitDy=0;entryX=0.5;entryY=0;entryDx=0;entryDy=0;curved=1;" parent="1" source="TkcA2Pwc8MpIF1o2tBOf-1" target="TkcA2Pwc8MpIF1o2tBOf-3" edge="1">
          <mxGeometry relative="1" as="geometry" />
        </mxCell>
        <mxCell id="TkcA2Pwc8MpIF1o2tBOf-13" value="11" style="edgeLabel;html=1;align=center;verticalAlign=middle;resizable=0;points=[];" parent="TkcA2Pwc8MpIF1o2tBOf-8" vertex="1" connectable="0">
          <mxGeometry x="0.2" y="-7" relative="1" as="geometry">
            <mxPoint as="offset" />
          </mxGeometry>
        </mxCell>
        <mxCell id="TkcA2Pwc8MpIF1o2tBOf-9" style="edgeStyle=orthogonalEdgeStyle;rounded=0;orthogonalLoop=1;jettySize=auto;html=1;exitX=1;exitY=0.5;exitDx=0;exitDy=0;entryX=0;entryY=0.5;entryDx=0;entryDy=0;curved=1;" parent="1" source="TkcA2Pwc8MpIF1o2tBOf-1" target="TkcA2Pwc8MpIF1o2tBOf-2" edge="1">
          <mxGeometry relative="1" as="geometry">
            <Array as="points">
              <mxPoint x="180" y="240" />
              <mxPoint x="360" y="240" />
            </Array>
          </mxGeometry>
        </mxCell>
        <mxCell id="TkcA2Pwc8MpIF1o2tBOf-15" value="4" style="edgeLabel;html=1;align=center;verticalAlign=middle;resizable=0;points=[];" parent="TkcA2Pwc8MpIF1o2tBOf-9" vertex="1" connectable="0">
          <mxGeometry x="-0.2613" y="3" relative="1" as="geometry">
            <mxPoint x="29" y="3" as="offset" />
          </mxGeometry>
        </mxCell>
        <mxCell id="TkcA2Pwc8MpIF1o2tBOf-1" value="V0" style="ellipse;whiteSpace=wrap;html=1;aspect=fixed;" parent="1" vertex="1">
          <mxGeometry x="140" y="200" width="40" height="40" as="geometry" />
        </mxCell>
        <mxCell id="TkcA2Pwc8MpIF1o2tBOf-5" style="rounded=0;orthogonalLoop=1;jettySize=auto;html=1;entryX=1;entryY=0;entryDx=0;entryDy=0;edgeStyle=orthogonalEdgeStyle;curved=1;" parent="1" source="TkcA2Pwc8MpIF1o2tBOf-2" target="TkcA2Pwc8MpIF1o2tBOf-3" edge="1">
          <mxGeometry relative="1" as="geometry">
            <Array as="points">
              <mxPoint x="380" y="406" />
            </Array>
          </mxGeometry>
        </mxCell>
        <mxCell id="TkcA2Pwc8MpIF1o2tBOf-12" value="2" style="edgeLabel;html=1;align=center;verticalAlign=middle;resizable=0;points=[];" parent="TkcA2Pwc8MpIF1o2tBOf-5" vertex="1" connectable="0">
          <mxGeometry x="-0.1978" y="-15" relative="1" as="geometry">
            <mxPoint as="offset" />
          </mxGeometry>
        </mxCell>
        <mxCell id="TkcA2Pwc8MpIF1o2tBOf-7" style="edgeStyle=orthogonalEdgeStyle;rounded=0;orthogonalLoop=1;jettySize=auto;html=1;exitX=0;exitY=0;exitDx=0;exitDy=0;entryX=1;entryY=0;entryDx=0;entryDy=0;curved=1;" parent="1" source="TkcA2Pwc8MpIF1o2tBOf-2" target="TkcA2Pwc8MpIF1o2tBOf-1" edge="1">
          <mxGeometry relative="1" as="geometry">
            <Array as="points">
              <mxPoint x="366" y="180" />
              <mxPoint x="174" y="180" />
            </Array>
          </mxGeometry>
        </mxCell>
        <mxCell id="TkcA2Pwc8MpIF1o2tBOf-11" value="6" style="edgeLabel;html=1;align=center;verticalAlign=middle;resizable=0;points=[];" parent="TkcA2Pwc8MpIF1o2tBOf-7" vertex="1" connectable="0">
          <mxGeometry x="0.2135" relative="1" as="geometry">
            <mxPoint x="26" as="offset" />
          </mxGeometry>
        </mxCell>
        <mxCell id="TkcA2Pwc8MpIF1o2tBOf-2" value="V1" style="ellipse;whiteSpace=wrap;html=1;aspect=fixed;" parent="1" vertex="1">
          <mxGeometry x="360" y="200" width="40" height="40" as="geometry" />
        </mxCell>
        <mxCell id="TkcA2Pwc8MpIF1o2tBOf-6" style="edgeStyle=orthogonalEdgeStyle;rounded=0;orthogonalLoop=1;jettySize=auto;html=1;exitX=0;exitY=0;exitDx=0;exitDy=0;entryX=0.5;entryY=1;entryDx=0;entryDy=0;elbow=vertical;curved=1;" parent="1" source="TkcA2Pwc8MpIF1o2tBOf-3" target="TkcA2Pwc8MpIF1o2tBOf-1" edge="1">
          <mxGeometry relative="1" as="geometry" />
        </mxCell>
        <mxCell id="TkcA2Pwc8MpIF1o2tBOf-14" value="3" style="edgeLabel;html=1;align=center;verticalAlign=middle;resizable=0;points=[];" parent="TkcA2Pwc8MpIF1o2tBOf-6" vertex="1" connectable="0">
          <mxGeometry x="-0.0248" y="-25" relative="1" as="geometry">
            <mxPoint as="offset" />
          </mxGeometry>
        </mxCell>
        <mxCell id="TkcA2Pwc8MpIF1o2tBOf-3" value="V2" style="ellipse;whiteSpace=wrap;html=1;aspect=fixed;" parent="1" vertex="1">
          <mxGeometry x="240" y="400" width="40" height="40" as="geometry" />
        </mxCell>
        <mxCell id="TkcA2Pwc8MpIF1o2tBOf-16" value="初始图" style="text;html=1;align=center;verticalAlign=middle;whiteSpace=wrap;rounded=0;" parent="1" vertex="1">
          <mxGeometry x="30" y="280" width="60" height="30" as="geometry" />
        </mxCell>
        <mxCell id="RHr8ZONxvlHMyYMkNMof-2" value="Dijkstra" style="text;html=1;align=center;verticalAlign=middle;whiteSpace=wrap;rounded=0;" vertex="1" parent="1">
          <mxGeometry x="30" y="610" width="60" height="30" as="geometry" />
        </mxCell>
        <mxCell id="RHr8ZONxvlHMyYMkNMof-3" value="Floyd" style="text;html=1;align=center;verticalAlign=middle;whiteSpace=wrap;rounded=0;" vertex="1" parent="1">
          <mxGeometry x="20" y="1000" width="60" height="30" as="geometry" />
        </mxCell>
        <mxCell id="RHr8ZONxvlHMyYMkNMof-4" value="顶点" style="rounded=0;whiteSpace=wrap;html=1;" vertex="1" parent="1">
          <mxGeometry x="150" y="610" width="100" height="40" as="geometry" />
        </mxCell>
        <mxCell id="RHr8ZONxvlHMyYMkNMof-5" value="第1趟" style="rounded=0;whiteSpace=wrap;html=1;" vertex="1" parent="1">
          <mxGeometry x="250" y="610" width="100" height="40" as="geometry" />
        </mxCell>
        <mxCell id="RHr8ZONxvlHMyYMkNMof-6" value="从V0出发" style="text;html=1;align=center;verticalAlign=middle;whiteSpace=wrap;rounded=0;" vertex="1" parent="1">
          <mxGeometry x="30" y="660" width="60" height="30" as="geometry" />
        </mxCell>
        <mxCell id="RHr8ZONxvlHMyYMkNMof-8" value="v1" style="rounded=0;whiteSpace=wrap;html=1;" vertex="1" parent="1">
          <mxGeometry x="150" y="650" width="100" height="40" as="geometry" />
        </mxCell>
        <mxCell id="RHr8ZONxvlHMyYMkNMof-9" value="v2" style="rounded=0;whiteSpace=wrap;html=1;" vertex="1" parent="1">
          <mxGeometry x="150" y="690" width="100" height="40" as="geometry" />
        </mxCell>
        <mxCell id="RHr8ZONxvlHMyYMkNMof-10" value="集合" style="rounded=0;whiteSpace=wrap;html=1;" vertex="1" parent="1">
          <mxGeometry x="150" y="730" width="100" height="40" as="geometry" />
        </mxCell>
        <mxCell id="RHr8ZONxvlHMyYMkNMof-11" value="4&lt;br&gt;v0-&amp;gt;v1" style="rounded=0;whiteSpace=wrap;html=1;fillColor=#dae8fc;strokeColor=#6c8ebf;" vertex="1" parent="1">
          <mxGeometry x="250" y="650" width="100" height="40" as="geometry" />
        </mxCell>
        <mxCell id="RHr8ZONxvlHMyYMkNMof-12" value="11&lt;br&gt;v0-&amp;gt;v2" style="rounded=0;whiteSpace=wrap;html=1;" vertex="1" parent="1">
          <mxGeometry x="250" y="690" width="100" height="40" as="geometry" />
        </mxCell>
        <mxCell id="RHr8ZONxvlHMyYMkNMof-13" value="{v0, v1}" style="rounded=0;whiteSpace=wrap;html=1;" vertex="1" parent="1">
          <mxGeometry x="250" y="730" width="100" height="40" as="geometry" />
        </mxCell>
        <mxCell id="RHr8ZONxvlHMyYMkNMof-14" value="第2趟" style="rounded=0;whiteSpace=wrap;html=1;" vertex="1" parent="1">
          <mxGeometry x="350" y="610" width="100" height="40" as="geometry" />
        </mxCell>
        <mxCell id="RHr8ZONxvlHMyYMkNMof-15" value="" style="rounded=0;whiteSpace=wrap;html=1;" vertex="1" parent="1">
          <mxGeometry x="350" y="650" width="100" height="40" as="geometry" />
        </mxCell>
        <mxCell id="RHr8ZONxvlHMyYMkNMof-16" value="6&lt;br&gt;v0-&amp;gt;v1-&amp;gt;v2" style="rounded=0;whiteSpace=wrap;html=1;fillColor=#dae8fc;strokeColor=#6c8ebf;" vertex="1" parent="1">
          <mxGeometry x="350" y="690" width="100" height="40" as="geometry" />
        </mxCell>
        <mxCell id="RHr8ZONxvlHMyYMkNMof-18" value="{v0, v1, v2}" style="rounded=0;whiteSpace=wrap;html=1;" vertex="1" parent="1">
          <mxGeometry x="350" y="730" width="100" height="40" as="geometry" />
        </mxCell>
        <mxCell id="RHr8ZONxvlHMyYMkNMof-19" value="从v0出发&lt;div&gt;到v1的最短路径是v0-&amp;gt;v1 距离是4&lt;br&gt;到v2的最短路径是v0-&amp;gt;v1-&amp;gt;v2 距离是6&lt;/div&gt;" style="text;html=1;align=left;verticalAlign=middle;whiteSpace=wrap;rounded=0;" vertex="1" parent="1">
          <mxGeometry x="150" y="820" width="310" height="40" as="geometry" />
        </mxCell>
        <mxCell id="RHr8ZONxvlHMyYMkNMof-22" value="0" style="rounded=0;whiteSpace=wrap;html=1;" vertex="1" parent="1">
          <mxGeometry x="160" y="1000" width="40" height="40" as="geometry" />
        </mxCell>
        <mxCell id="RHr8ZONxvlHMyYMkNMof-23" value="v0" style="text;html=1;align=center;verticalAlign=middle;whiteSpace=wrap;rounded=0;" vertex="1" parent="1">
          <mxGeometry x="150" y="970" width="60" height="30" as="geometry" />
        </mxCell>
        <mxCell id="RHr8ZONxvlHMyYMkNMof-24" value="4" style="rounded=0;whiteSpace=wrap;html=1;" vertex="1" parent="1">
          <mxGeometry x="200" y="1000" width="40" height="40" as="geometry" />
        </mxCell>
        <mxCell id="RHr8ZONxvlHMyYMkNMof-25" value="11" style="rounded=0;whiteSpace=wrap;html=1;" vertex="1" parent="1">
          <mxGeometry x="240" y="1000" width="40" height="40" as="geometry" />
        </mxCell>
        <mxCell id="RHr8ZONxvlHMyYMkNMof-27" value="6" style="rounded=0;whiteSpace=wrap;html=1;" vertex="1" parent="1">
          <mxGeometry x="160" y="1040" width="40" height="40" as="geometry" />
        </mxCell>
        <mxCell id="RHr8ZONxvlHMyYMkNMof-28" value="0" style="rounded=0;whiteSpace=wrap;html=1;" vertex="1" parent="1">
          <mxGeometry x="200" y="1040" width="40" height="40" as="geometry" />
        </mxCell>
        <mxCell id="RHr8ZONxvlHMyYMkNMof-29" value="2" style="rounded=0;whiteSpace=wrap;html=1;" vertex="1" parent="1">
          <mxGeometry x="240" y="1040" width="40" height="40" as="geometry" />
        </mxCell>
        <mxCell id="RHr8ZONxvlHMyYMkNMof-30" value="3" style="rounded=0;whiteSpace=wrap;html=1;" vertex="1" parent="1">
          <mxGeometry x="160" y="1080" width="40" height="40" as="geometry" />
        </mxCell>
        <mxCell id="RHr8ZONxvlHMyYMkNMof-31" value="INF" style="rounded=0;whiteSpace=wrap;html=1;" vertex="1" parent="1">
          <mxGeometry x="200" y="1080" width="40" height="40" as="geometry" />
        </mxCell>
        <mxCell id="RHr8ZONxvlHMyYMkNMof-32" value="0" style="rounded=0;whiteSpace=wrap;html=1;" vertex="1" parent="1">
          <mxGeometry x="240" y="1080" width="40" height="40" as="geometry" />
        </mxCell>
        <mxCell id="RHr8ZONxvlHMyYMkNMof-33" value="Dist[-1]" style="text;html=1;align=center;verticalAlign=middle;whiteSpace=wrap;rounded=0;" vertex="1" parent="1">
          <mxGeometry x="160" y="930" width="60" height="30" as="geometry" />
        </mxCell>
        <mxCell id="RHr8ZONxvlHMyYMkNMof-34" value="v1" style="text;html=1;align=center;verticalAlign=middle;whiteSpace=wrap;rounded=0;" vertex="1" parent="1">
          <mxGeometry x="190" y="970" width="60" height="30" as="geometry" />
        </mxCell>
        <mxCell id="RHr8ZONxvlHMyYMkNMof-35" value="v2" style="text;html=1;align=center;verticalAlign=middle;whiteSpace=wrap;rounded=0;" vertex="1" parent="1">
          <mxGeometry x="230" y="970" width="60" height="30" as="geometry" />
        </mxCell>
        <mxCell id="RHr8ZONxvlHMyYMkNMof-36" value="v0" style="text;html=1;align=center;verticalAlign=middle;whiteSpace=wrap;rounded=0;" vertex="1" parent="1">
          <mxGeometry x="110" y="1000" width="60" height="30" as="geometry" />
        </mxCell>
        <mxCell id="RHr8ZONxvlHMyYMkNMof-37" value="v1" style="text;html=1;align=center;verticalAlign=middle;whiteSpace=wrap;rounded=0;" vertex="1" parent="1">
          <mxGeometry x="110" y="1045" width="60" height="30" as="geometry" />
        </mxCell>
        <mxCell id="RHr8ZONxvlHMyYMkNMof-38" value="v2" style="text;html=1;align=center;verticalAlign=middle;whiteSpace=wrap;rounded=0;" vertex="1" parent="1">
          <mxGeometry x="110" y="1085" width="60" height="30" as="geometry" />
        </mxCell>
        <mxCell id="RHr8ZONxvlHMyYMkNMof-39" value="-1" style="rounded=0;whiteSpace=wrap;html=1;" vertex="1" parent="1">
          <mxGeometry x="440" y="1000" width="40" height="40" as="geometry" />
        </mxCell>
        <mxCell id="RHr8ZONxvlHMyYMkNMof-40" value="v0" style="text;html=1;align=center;verticalAlign=middle;whiteSpace=wrap;rounded=0;" vertex="1" parent="1">
          <mxGeometry x="430" y="970" width="60" height="30" as="geometry" />
        </mxCell>
        <mxCell id="RHr8ZONxvlHMyYMkNMof-41" value="0" style="rounded=0;whiteSpace=wrap;html=1;" vertex="1" parent="1">
          <mxGeometry x="480" y="1000" width="40" height="40" as="geometry" />
        </mxCell>
        <mxCell id="RHr8ZONxvlHMyYMkNMof-42" value="0" style="rounded=0;whiteSpace=wrap;html=1;" vertex="1" parent="1">
          <mxGeometry x="520" y="1000" width="40" height="40" as="geometry" />
        </mxCell>
        <mxCell id="RHr8ZONxvlHMyYMkNMof-43" value="1" style="rounded=0;whiteSpace=wrap;html=1;" vertex="1" parent="1">
          <mxGeometry x="440" y="1040" width="40" height="40" as="geometry" />
        </mxCell>
        <mxCell id="RHr8ZONxvlHMyYMkNMof-44" value="-1" style="rounded=0;whiteSpace=wrap;html=1;" vertex="1" parent="1">
          <mxGeometry x="480" y="1040" width="40" height="40" as="geometry" />
        </mxCell>
        <mxCell id="RHr8ZONxvlHMyYMkNMof-45" value="1" style="rounded=0;whiteSpace=wrap;html=1;" vertex="1" parent="1">
          <mxGeometry x="520" y="1040" width="40" height="40" as="geometry" />
        </mxCell>
        <mxCell id="RHr8ZONxvlHMyYMkNMof-46" value="2" style="rounded=0;whiteSpace=wrap;html=1;" vertex="1" parent="1">
          <mxGeometry x="440" y="1080" width="40" height="40" as="geometry" />
        </mxCell>
        <mxCell id="RHr8ZONxvlHMyYMkNMof-47" value="2" style="rounded=0;whiteSpace=wrap;html=1;" vertex="1" parent="1">
          <mxGeometry x="480" y="1080" width="40" height="40" as="geometry" />
        </mxCell>
        <mxCell id="RHr8ZONxvlHMyYMkNMof-48" value="-1" style="rounded=0;whiteSpace=wrap;html=1;" vertex="1" parent="1">
          <mxGeometry x="520" y="1080" width="40" height="40" as="geometry" />
        </mxCell>
        <mxCell id="RHr8ZONxvlHMyYMkNMof-49" value="Path[-1]" style="text;html=1;align=center;verticalAlign=middle;whiteSpace=wrap;rounded=0;" vertex="1" parent="1">
          <mxGeometry x="440" y="930" width="60" height="30" as="geometry" />
        </mxCell>
        <mxCell id="RHr8ZONxvlHMyYMkNMof-50" value="v1" style="text;html=1;align=center;verticalAlign=middle;whiteSpace=wrap;rounded=0;" vertex="1" parent="1">
          <mxGeometry x="470" y="970" width="60" height="30" as="geometry" />
        </mxCell>
        <mxCell id="RHr8ZONxvlHMyYMkNMof-51" value="v2" style="text;html=1;align=center;verticalAlign=middle;whiteSpace=wrap;rounded=0;" vertex="1" parent="1">
          <mxGeometry x="510" y="970" width="60" height="30" as="geometry" />
        </mxCell>
        <mxCell id="RHr8ZONxvlHMyYMkNMof-52" value="v0" style="text;html=1;align=center;verticalAlign=middle;whiteSpace=wrap;rounded=0;" vertex="1" parent="1">
          <mxGeometry x="390" y="1000" width="60" height="30" as="geometry" />
        </mxCell>
        <mxCell id="RHr8ZONxvlHMyYMkNMof-53" value="v1" style="text;html=1;align=center;verticalAlign=middle;whiteSpace=wrap;rounded=0;" vertex="1" parent="1">
          <mxGeometry x="390" y="1045" width="60" height="30" as="geometry" />
        </mxCell>
        <mxCell id="RHr8ZONxvlHMyYMkNMof-54" value="v2" style="text;html=1;align=center;verticalAlign=middle;whiteSpace=wrap;rounded=0;" vertex="1" parent="1">
          <mxGeometry x="390" y="1085" width="60" height="30" as="geometry" />
        </mxCell>
        <mxCell id="RHr8ZONxvlHMyYMkNMof-55" value="0" style="rounded=0;whiteSpace=wrap;html=1;" vertex="1" parent="1">
          <mxGeometry x="160" y="1239" width="40" height="40" as="geometry" />
        </mxCell>
        <mxCell id="RHr8ZONxvlHMyYMkNMof-56" value="v0" style="text;html=1;align=center;verticalAlign=middle;whiteSpace=wrap;rounded=0;" vertex="1" parent="1">
          <mxGeometry x="150" y="1209" width="60" height="30" as="geometry" />
        </mxCell>
        <mxCell id="RHr8ZONxvlHMyYMkNMof-57" value="4" style="rounded=0;whiteSpace=wrap;html=1;" vertex="1" parent="1">
          <mxGeometry x="200" y="1239" width="40" height="40" as="geometry" />
        </mxCell>
        <mxCell id="RHr8ZONxvlHMyYMkNMof-58" value="11" style="rounded=0;whiteSpace=wrap;html=1;" vertex="1" parent="1">
          <mxGeometry x="240" y="1239" width="40" height="40" as="geometry" />
        </mxCell>
        <mxCell id="RHr8ZONxvlHMyYMkNMof-59" value="6" style="rounded=0;whiteSpace=wrap;html=1;" vertex="1" parent="1">
          <mxGeometry x="160" y="1279" width="40" height="40" as="geometry" />
        </mxCell>
        <mxCell id="RHr8ZONxvlHMyYMkNMof-60" value="0" style="rounded=0;whiteSpace=wrap;html=1;" vertex="1" parent="1">
          <mxGeometry x="200" y="1279" width="40" height="40" as="geometry" />
        </mxCell>
        <mxCell id="RHr8ZONxvlHMyYMkNMof-61" value="2" style="rounded=0;whiteSpace=wrap;html=1;" vertex="1" parent="1">
          <mxGeometry x="240" y="1279" width="40" height="40" as="geometry" />
        </mxCell>
        <mxCell id="RHr8ZONxvlHMyYMkNMof-62" value="3" style="rounded=0;whiteSpace=wrap;html=1;" vertex="1" parent="1">
          <mxGeometry x="160" y="1319" width="40" height="40" as="geometry" />
        </mxCell>
        <mxCell id="RHr8ZONxvlHMyYMkNMof-63" value="7" style="rounded=0;whiteSpace=wrap;html=1;" vertex="1" parent="1">
          <mxGeometry x="200" y="1319" width="40" height="40" as="geometry" />
        </mxCell>
        <mxCell id="RHr8ZONxvlHMyYMkNMof-64" value="0" style="rounded=0;whiteSpace=wrap;html=1;" vertex="1" parent="1">
          <mxGeometry x="240" y="1319" width="40" height="40" as="geometry" />
        </mxCell>
        <mxCell id="RHr8ZONxvlHMyYMkNMof-65" value="Dist[0]" style="text;html=1;align=center;verticalAlign=middle;whiteSpace=wrap;rounded=0;" vertex="1" parent="1">
          <mxGeometry x="160" y="1169" width="60" height="30" as="geometry" />
        </mxCell>
        <mxCell id="RHr8ZONxvlHMyYMkNMof-66" value="v1" style="text;html=1;align=center;verticalAlign=middle;whiteSpace=wrap;rounded=0;" vertex="1" parent="1">
          <mxGeometry x="190" y="1209" width="60" height="30" as="geometry" />
        </mxCell>
        <mxCell id="RHr8ZONxvlHMyYMkNMof-67" value="v2" style="text;html=1;align=center;verticalAlign=middle;whiteSpace=wrap;rounded=0;" vertex="1" parent="1">
          <mxGeometry x="230" y="1209" width="60" height="30" as="geometry" />
        </mxCell>
        <mxCell id="RHr8ZONxvlHMyYMkNMof-68" value="v0" style="text;html=1;align=center;verticalAlign=middle;whiteSpace=wrap;rounded=0;" vertex="1" parent="1">
          <mxGeometry x="110" y="1239" width="60" height="30" as="geometry" />
        </mxCell>
        <mxCell id="RHr8ZONxvlHMyYMkNMof-69" value="v1" style="text;html=1;align=center;verticalAlign=middle;whiteSpace=wrap;rounded=0;" vertex="1" parent="1">
          <mxGeometry x="110" y="1284" width="60" height="30" as="geometry" />
        </mxCell>
        <mxCell id="RHr8ZONxvlHMyYMkNMof-70" value="v2" style="text;html=1;align=center;verticalAlign=middle;whiteSpace=wrap;rounded=0;" vertex="1" parent="1">
          <mxGeometry x="110" y="1324" width="60" height="30" as="geometry" />
        </mxCell>
        <mxCell id="RHr8ZONxvlHMyYMkNMof-71" value="-1" style="rounded=0;whiteSpace=wrap;html=1;" vertex="1" parent="1">
          <mxGeometry x="440" y="1239" width="40" height="40" as="geometry" />
        </mxCell>
        <mxCell id="RHr8ZONxvlHMyYMkNMof-72" value="v0" style="text;html=1;align=center;verticalAlign=middle;whiteSpace=wrap;rounded=0;" vertex="1" parent="1">
          <mxGeometry x="430" y="1209" width="60" height="30" as="geometry" />
        </mxCell>
        <mxCell id="RHr8ZONxvlHMyYMkNMof-73" value="0" style="rounded=0;whiteSpace=wrap;html=1;" vertex="1" parent="1">
          <mxGeometry x="480" y="1239" width="40" height="40" as="geometry" />
        </mxCell>
        <mxCell id="RHr8ZONxvlHMyYMkNMof-74" value="0" style="rounded=0;whiteSpace=wrap;html=1;" vertex="1" parent="1">
          <mxGeometry x="520" y="1239" width="40" height="40" as="geometry" />
        </mxCell>
        <mxCell id="RHr8ZONxvlHMyYMkNMof-75" value="1" style="rounded=0;whiteSpace=wrap;html=1;" vertex="1" parent="1">
          <mxGeometry x="440" y="1279" width="40" height="40" as="geometry" />
        </mxCell>
        <mxCell id="RHr8ZONxvlHMyYMkNMof-76" value="-1" style="rounded=0;whiteSpace=wrap;html=1;" vertex="1" parent="1">
          <mxGeometry x="480" y="1279" width="40" height="40" as="geometry" />
        </mxCell>
        <mxCell id="RHr8ZONxvlHMyYMkNMof-77" value="1" style="rounded=0;whiteSpace=wrap;html=1;" vertex="1" parent="1">
          <mxGeometry x="520" y="1279" width="40" height="40" as="geometry" />
        </mxCell>
        <mxCell id="RHr8ZONxvlHMyYMkNMof-78" value="2" style="rounded=0;whiteSpace=wrap;html=1;" vertex="1" parent="1">
          <mxGeometry x="440" y="1319" width="40" height="40" as="geometry" />
        </mxCell>
        <mxCell id="RHr8ZONxvlHMyYMkNMof-79" value="0" style="rounded=0;whiteSpace=wrap;html=1;" vertex="1" parent="1">
          <mxGeometry x="480" y="1319" width="40" height="40" as="geometry" />
        </mxCell>
        <mxCell id="RHr8ZONxvlHMyYMkNMof-80" value="-1" style="rounded=0;whiteSpace=wrap;html=1;" vertex="1" parent="1">
          <mxGeometry x="520" y="1319" width="40" height="40" as="geometry" />
        </mxCell>
        <mxCell id="RHr8ZONxvlHMyYMkNMof-81" value="Path[0]" style="text;html=1;align=center;verticalAlign=middle;whiteSpace=wrap;rounded=0;" vertex="1" parent="1">
          <mxGeometry x="440" y="1169" width="60" height="30" as="geometry" />
        </mxCell>
        <mxCell id="RHr8ZONxvlHMyYMkNMof-82" value="v1" style="text;html=1;align=center;verticalAlign=middle;whiteSpace=wrap;rounded=0;" vertex="1" parent="1">
          <mxGeometry x="470" y="1209" width="60" height="30" as="geometry" />
        </mxCell>
        <mxCell id="RHr8ZONxvlHMyYMkNMof-83" value="v2" style="text;html=1;align=center;verticalAlign=middle;whiteSpace=wrap;rounded=0;" vertex="1" parent="1">
          <mxGeometry x="510" y="1209" width="60" height="30" as="geometry" />
        </mxCell>
        <mxCell id="RHr8ZONxvlHMyYMkNMof-84" value="v0" style="text;html=1;align=center;verticalAlign=middle;whiteSpace=wrap;rounded=0;" vertex="1" parent="1">
          <mxGeometry x="390" y="1239" width="60" height="30" as="geometry" />
        </mxCell>
        <mxCell id="RHr8ZONxvlHMyYMkNMof-85" value="v1" style="text;html=1;align=center;verticalAlign=middle;whiteSpace=wrap;rounded=0;" vertex="1" parent="1">
          <mxGeometry x="390" y="1284" width="60" height="30" as="geometry" />
        </mxCell>
        <mxCell id="RHr8ZONxvlHMyYMkNMof-86" value="v2" style="text;html=1;align=center;verticalAlign=middle;whiteSpace=wrap;rounded=0;" vertex="1" parent="1">
          <mxGeometry x="390" y="1324" width="60" height="30" as="geometry" />
        </mxCell>
        <mxCell id="RHr8ZONxvlHMyYMkNMof-87" value="0" style="rounded=0;whiteSpace=wrap;html=1;" vertex="1" parent="1">
          <mxGeometry x="160" y="1490" width="40" height="40" as="geometry" />
        </mxCell>
        <mxCell id="RHr8ZONxvlHMyYMkNMof-88" value="v0" style="text;html=1;align=center;verticalAlign=middle;whiteSpace=wrap;rounded=0;" vertex="1" parent="1">
          <mxGeometry x="150" y="1460" width="60" height="30" as="geometry" />
        </mxCell>
        <mxCell id="RHr8ZONxvlHMyYMkNMof-89" value="4" style="rounded=0;whiteSpace=wrap;html=1;" vertex="1" parent="1">
          <mxGeometry x="200" y="1490" width="40" height="40" as="geometry" />
        </mxCell>
        <mxCell id="RHr8ZONxvlHMyYMkNMof-90" value="6" style="rounded=0;whiteSpace=wrap;html=1;" vertex="1" parent="1">
          <mxGeometry x="240" y="1490" width="40" height="40" as="geometry" />
        </mxCell>
        <mxCell id="RHr8ZONxvlHMyYMkNMof-91" value="6" style="rounded=0;whiteSpace=wrap;html=1;" vertex="1" parent="1">
          <mxGeometry x="160" y="1530" width="40" height="40" as="geometry" />
        </mxCell>
        <mxCell id="RHr8ZONxvlHMyYMkNMof-92" value="0" style="rounded=0;whiteSpace=wrap;html=1;" vertex="1" parent="1">
          <mxGeometry x="200" y="1530" width="40" height="40" as="geometry" />
        </mxCell>
        <mxCell id="RHr8ZONxvlHMyYMkNMof-93" value="2" style="rounded=0;whiteSpace=wrap;html=1;" vertex="1" parent="1">
          <mxGeometry x="240" y="1530" width="40" height="40" as="geometry" />
        </mxCell>
        <mxCell id="RHr8ZONxvlHMyYMkNMof-94" value="3" style="rounded=0;whiteSpace=wrap;html=1;" vertex="1" parent="1">
          <mxGeometry x="160" y="1570" width="40" height="40" as="geometry" />
        </mxCell>
        <mxCell id="RHr8ZONxvlHMyYMkNMof-95" value="7" style="rounded=0;whiteSpace=wrap;html=1;" vertex="1" parent="1">
          <mxGeometry x="200" y="1570" width="40" height="40" as="geometry" />
        </mxCell>
        <mxCell id="RHr8ZONxvlHMyYMkNMof-96" value="0" style="rounded=0;whiteSpace=wrap;html=1;" vertex="1" parent="1">
          <mxGeometry x="240" y="1570" width="40" height="40" as="geometry" />
        </mxCell>
        <mxCell id="RHr8ZONxvlHMyYMkNMof-97" value="Dist[1]" style="text;html=1;align=center;verticalAlign=middle;whiteSpace=wrap;rounded=0;" vertex="1" parent="1">
          <mxGeometry x="160" y="1420" width="60" height="30" as="geometry" />
        </mxCell>
        <mxCell id="RHr8ZONxvlHMyYMkNMof-98" value="v1" style="text;html=1;align=center;verticalAlign=middle;whiteSpace=wrap;rounded=0;" vertex="1" parent="1">
          <mxGeometry x="190" y="1460" width="60" height="30" as="geometry" />
        </mxCell>
        <mxCell id="RHr8ZONxvlHMyYMkNMof-99" value="v2" style="text;html=1;align=center;verticalAlign=middle;whiteSpace=wrap;rounded=0;" vertex="1" parent="1">
          <mxGeometry x="230" y="1460" width="60" height="30" as="geometry" />
        </mxCell>
        <mxCell id="RHr8ZONxvlHMyYMkNMof-100" value="v0" style="text;html=1;align=center;verticalAlign=middle;whiteSpace=wrap;rounded=0;" vertex="1" parent="1">
          <mxGeometry x="110" y="1490" width="60" height="30" as="geometry" />
        </mxCell>
        <mxCell id="RHr8ZONxvlHMyYMkNMof-101" value="v1" style="text;html=1;align=center;verticalAlign=middle;whiteSpace=wrap;rounded=0;" vertex="1" parent="1">
          <mxGeometry x="110" y="1535" width="60" height="30" as="geometry" />
        </mxCell>
        <mxCell id="RHr8ZONxvlHMyYMkNMof-102" value="v2" style="text;html=1;align=center;verticalAlign=middle;whiteSpace=wrap;rounded=0;" vertex="1" parent="1">
          <mxGeometry x="110" y="1575" width="60" height="30" as="geometry" />
        </mxCell>
        <mxCell id="RHr8ZONxvlHMyYMkNMof-103" value="-1" style="rounded=0;whiteSpace=wrap;html=1;" vertex="1" parent="1">
          <mxGeometry x="440" y="1490" width="40" height="40" as="geometry" />
        </mxCell>
        <mxCell id="RHr8ZONxvlHMyYMkNMof-104" value="v0" style="text;html=1;align=center;verticalAlign=middle;whiteSpace=wrap;rounded=0;" vertex="1" parent="1">
          <mxGeometry x="430" y="1460" width="60" height="30" as="geometry" />
        </mxCell>
        <mxCell id="RHr8ZONxvlHMyYMkNMof-105" value="0" style="rounded=0;whiteSpace=wrap;html=1;" vertex="1" parent="1">
          <mxGeometry x="480" y="1490" width="40" height="40" as="geometry" />
        </mxCell>
        <mxCell id="RHr8ZONxvlHMyYMkNMof-106" value="1" style="rounded=0;whiteSpace=wrap;html=1;" vertex="1" parent="1">
          <mxGeometry x="520" y="1490" width="40" height="40" as="geometry" />
        </mxCell>
        <mxCell id="RHr8ZONxvlHMyYMkNMof-107" value="1" style="rounded=0;whiteSpace=wrap;html=1;" vertex="1" parent="1">
          <mxGeometry x="440" y="1530" width="40" height="40" as="geometry" />
        </mxCell>
        <mxCell id="RHr8ZONxvlHMyYMkNMof-108" value="-1" style="rounded=0;whiteSpace=wrap;html=1;" vertex="1" parent="1">
          <mxGeometry x="480" y="1530" width="40" height="40" as="geometry" />
        </mxCell>
        <mxCell id="RHr8ZONxvlHMyYMkNMof-109" value="1" style="rounded=0;whiteSpace=wrap;html=1;" vertex="1" parent="1">
          <mxGeometry x="520" y="1530" width="40" height="40" as="geometry" />
        </mxCell>
        <mxCell id="RHr8ZONxvlHMyYMkNMof-110" value="2" style="rounded=0;whiteSpace=wrap;html=1;" vertex="1" parent="1">
          <mxGeometry x="440" y="1570" width="40" height="40" as="geometry" />
        </mxCell>
        <mxCell id="RHr8ZONxvlHMyYMkNMof-111" value="0" style="rounded=0;whiteSpace=wrap;html=1;" vertex="1" parent="1">
          <mxGeometry x="480" y="1570" width="40" height="40" as="geometry" />
        </mxCell>
        <mxCell id="RHr8ZONxvlHMyYMkNMof-112" value="-1" style="rounded=0;whiteSpace=wrap;html=1;" vertex="1" parent="1">
          <mxGeometry x="520" y="1570" width="40" height="40" as="geometry" />
        </mxCell>
        <mxCell id="RHr8ZONxvlHMyYMkNMof-113" value="Path[1]" style="text;html=1;align=center;verticalAlign=middle;whiteSpace=wrap;rounded=0;" vertex="1" parent="1">
          <mxGeometry x="440" y="1420" width="60" height="30" as="geometry" />
        </mxCell>
        <mxCell id="RHr8ZONxvlHMyYMkNMof-114" value="v1" style="text;html=1;align=center;verticalAlign=middle;whiteSpace=wrap;rounded=0;" vertex="1" parent="1">
          <mxGeometry x="470" y="1460" width="60" height="30" as="geometry" />
        </mxCell>
        <mxCell id="RHr8ZONxvlHMyYMkNMof-115" value="v2" style="text;html=1;align=center;verticalAlign=middle;whiteSpace=wrap;rounded=0;" vertex="1" parent="1">
          <mxGeometry x="510" y="1460" width="60" height="30" as="geometry" />
        </mxCell>
        <mxCell id="RHr8ZONxvlHMyYMkNMof-116" value="v0" style="text;html=1;align=center;verticalAlign=middle;whiteSpace=wrap;rounded=0;" vertex="1" parent="1">
          <mxGeometry x="390" y="1490" width="60" height="30" as="geometry" />
        </mxCell>
        <mxCell id="RHr8ZONxvlHMyYMkNMof-117" value="v1" style="text;html=1;align=center;verticalAlign=middle;whiteSpace=wrap;rounded=0;" vertex="1" parent="1">
          <mxGeometry x="390" y="1535" width="60" height="30" as="geometry" />
        </mxCell>
        <mxCell id="RHr8ZONxvlHMyYMkNMof-118" value="v2" style="text;html=1;align=center;verticalAlign=middle;whiteSpace=wrap;rounded=0;" vertex="1" parent="1">
          <mxGeometry x="390" y="1575" width="60" height="30" as="geometry" />
        </mxCell>
        <mxCell id="RHr8ZONxvlHMyYMkNMof-119" value="0" style="rounded=0;whiteSpace=wrap;html=1;" vertex="1" parent="1">
          <mxGeometry x="160" y="1729" width="40" height="40" as="geometry" />
        </mxCell>
        <mxCell id="RHr8ZONxvlHMyYMkNMof-120" value="v0" style="text;html=1;align=center;verticalAlign=middle;whiteSpace=wrap;rounded=0;" vertex="1" parent="1">
          <mxGeometry x="150" y="1699" width="60" height="30" as="geometry" />
        </mxCell>
        <mxCell id="RHr8ZONxvlHMyYMkNMof-121" value="4" style="rounded=0;whiteSpace=wrap;html=1;" vertex="1" parent="1">
          <mxGeometry x="200" y="1729" width="40" height="40" as="geometry" />
        </mxCell>
        <mxCell id="RHr8ZONxvlHMyYMkNMof-122" value="6" style="rounded=0;whiteSpace=wrap;html=1;" vertex="1" parent="1">
          <mxGeometry x="240" y="1729" width="40" height="40" as="geometry" />
        </mxCell>
        <mxCell id="RHr8ZONxvlHMyYMkNMof-123" value="5" style="rounded=0;whiteSpace=wrap;html=1;" vertex="1" parent="1">
          <mxGeometry x="160" y="1769" width="40" height="40" as="geometry" />
        </mxCell>
        <mxCell id="RHr8ZONxvlHMyYMkNMof-124" value="0" style="rounded=0;whiteSpace=wrap;html=1;" vertex="1" parent="1">
          <mxGeometry x="200" y="1769" width="40" height="40" as="geometry" />
        </mxCell>
        <mxCell id="RHr8ZONxvlHMyYMkNMof-125" value="2" style="rounded=0;whiteSpace=wrap;html=1;" vertex="1" parent="1">
          <mxGeometry x="240" y="1769" width="40" height="40" as="geometry" />
        </mxCell>
        <mxCell id="RHr8ZONxvlHMyYMkNMof-126" value="3" style="rounded=0;whiteSpace=wrap;html=1;" vertex="1" parent="1">
          <mxGeometry x="160" y="1809" width="40" height="40" as="geometry" />
        </mxCell>
        <mxCell id="RHr8ZONxvlHMyYMkNMof-127" value="7" style="rounded=0;whiteSpace=wrap;html=1;" vertex="1" parent="1">
          <mxGeometry x="200" y="1809" width="40" height="40" as="geometry" />
        </mxCell>
        <mxCell id="RHr8ZONxvlHMyYMkNMof-128" value="0" style="rounded=0;whiteSpace=wrap;html=1;" vertex="1" parent="1">
          <mxGeometry x="240" y="1809" width="40" height="40" as="geometry" />
        </mxCell>
        <mxCell id="RHr8ZONxvlHMyYMkNMof-129" value="Dist[2]" style="text;html=1;align=center;verticalAlign=middle;whiteSpace=wrap;rounded=0;" vertex="1" parent="1">
          <mxGeometry x="160" y="1659" width="60" height="30" as="geometry" />
        </mxCell>
        <mxCell id="RHr8ZONxvlHMyYMkNMof-130" value="v1" style="text;html=1;align=center;verticalAlign=middle;whiteSpace=wrap;rounded=0;" vertex="1" parent="1">
          <mxGeometry x="190" y="1699" width="60" height="30" as="geometry" />
        </mxCell>
        <mxCell id="RHr8ZONxvlHMyYMkNMof-131" value="v2" style="text;html=1;align=center;verticalAlign=middle;whiteSpace=wrap;rounded=0;" vertex="1" parent="1">
          <mxGeometry x="230" y="1699" width="60" height="30" as="geometry" />
        </mxCell>
        <mxCell id="RHr8ZONxvlHMyYMkNMof-132" value="v0" style="text;html=1;align=center;verticalAlign=middle;whiteSpace=wrap;rounded=0;" vertex="1" parent="1">
          <mxGeometry x="110" y="1729" width="60" height="30" as="geometry" />
        </mxCell>
        <mxCell id="RHr8ZONxvlHMyYMkNMof-133" value="v1" style="text;html=1;align=center;verticalAlign=middle;whiteSpace=wrap;rounded=0;" vertex="1" parent="1">
          <mxGeometry x="110" y="1774" width="60" height="30" as="geometry" />
        </mxCell>
        <mxCell id="RHr8ZONxvlHMyYMkNMof-134" value="v2" style="text;html=1;align=center;verticalAlign=middle;whiteSpace=wrap;rounded=0;" vertex="1" parent="1">
          <mxGeometry x="110" y="1814" width="60" height="30" as="geometry" />
        </mxCell>
        <mxCell id="RHr8ZONxvlHMyYMkNMof-135" value="-1" style="rounded=0;whiteSpace=wrap;html=1;" vertex="1" parent="1">
          <mxGeometry x="440" y="1729" width="40" height="40" as="geometry" />
        </mxCell>
        <mxCell id="RHr8ZONxvlHMyYMkNMof-136" value="v0" style="text;html=1;align=center;verticalAlign=middle;whiteSpace=wrap;rounded=0;" vertex="1" parent="1">
          <mxGeometry x="430" y="1699" width="60" height="30" as="geometry" />
        </mxCell>
        <mxCell id="RHr8ZONxvlHMyYMkNMof-137" value="0" style="rounded=0;whiteSpace=wrap;html=1;" vertex="1" parent="1">
          <mxGeometry x="480" y="1729" width="40" height="40" as="geometry" />
        </mxCell>
        <mxCell id="RHr8ZONxvlHMyYMkNMof-138" value="1" style="rounded=0;whiteSpace=wrap;html=1;" vertex="1" parent="1">
          <mxGeometry x="520" y="1729" width="40" height="40" as="geometry" />
        </mxCell>
        <mxCell id="RHr8ZONxvlHMyYMkNMof-139" value="2" style="rounded=0;whiteSpace=wrap;html=1;" vertex="1" parent="1">
          <mxGeometry x="440" y="1769" width="40" height="40" as="geometry" />
        </mxCell>
        <mxCell id="RHr8ZONxvlHMyYMkNMof-140" value="-1" style="rounded=0;whiteSpace=wrap;html=1;" vertex="1" parent="1">
          <mxGeometry x="480" y="1769" width="40" height="40" as="geometry" />
        </mxCell>
        <mxCell id="RHr8ZONxvlHMyYMkNMof-141" value="1" style="rounded=0;whiteSpace=wrap;html=1;" vertex="1" parent="1">
          <mxGeometry x="520" y="1769" width="40" height="40" as="geometry" />
        </mxCell>
        <mxCell id="RHr8ZONxvlHMyYMkNMof-142" value="2" style="rounded=0;whiteSpace=wrap;html=1;" vertex="1" parent="1">
          <mxGeometry x="440" y="1809" width="40" height="40" as="geometry" />
        </mxCell>
        <mxCell id="RHr8ZONxvlHMyYMkNMof-143" value="0" style="rounded=0;whiteSpace=wrap;html=1;" vertex="1" parent="1">
          <mxGeometry x="480" y="1809" width="40" height="40" as="geometry" />
        </mxCell>
        <mxCell id="RHr8ZONxvlHMyYMkNMof-144" value="-1" style="rounded=0;whiteSpace=wrap;html=1;" vertex="1" parent="1">
          <mxGeometry x="520" y="1809" width="40" height="40" as="geometry" />
        </mxCell>
        <mxCell id="RHr8ZONxvlHMyYMkNMof-145" value="Path[2]" style="text;html=1;align=center;verticalAlign=middle;whiteSpace=wrap;rounded=0;" vertex="1" parent="1">
          <mxGeometry x="440" y="1659" width="60" height="30" as="geometry" />
        </mxCell>
        <mxCell id="RHr8ZONxvlHMyYMkNMof-146" value="v1" style="text;html=1;align=center;verticalAlign=middle;whiteSpace=wrap;rounded=0;" vertex="1" parent="1">
          <mxGeometry x="470" y="1699" width="60" height="30" as="geometry" />
        </mxCell>
        <mxCell id="RHr8ZONxvlHMyYMkNMof-147" value="v2" style="text;html=1;align=center;verticalAlign=middle;whiteSpace=wrap;rounded=0;" vertex="1" parent="1">
          <mxGeometry x="510" y="1699" width="60" height="30" as="geometry" />
        </mxCell>
        <mxCell id="RHr8ZONxvlHMyYMkNMof-148" value="v0" style="text;html=1;align=center;verticalAlign=middle;whiteSpace=wrap;rounded=0;" vertex="1" parent="1">
          <mxGeometry x="390" y="1729" width="60" height="30" as="geometry" />
        </mxCell>
        <mxCell id="RHr8ZONxvlHMyYMkNMof-149" value="v1" style="text;html=1;align=center;verticalAlign=middle;whiteSpace=wrap;rounded=0;" vertex="1" parent="1">
          <mxGeometry x="390" y="1774" width="60" height="30" as="geometry" />
        </mxCell>
        <mxCell id="RHr8ZONxvlHMyYMkNMof-150" value="v2" style="text;html=1;align=center;verticalAlign=middle;whiteSpace=wrap;rounded=0;" vertex="1" parent="1">
          <mxGeometry x="390" y="1814" width="60" height="30" as="geometry" />
        </mxCell>
        <mxCell id="RHr8ZONxvlHMyYMkNMof-151" value="从v0出发&lt;div&gt;到v1的最短路径是v0-&amp;gt;v1 距离是4&lt;br&gt;到v2的最短路径是v0-&amp;gt;v1-&amp;gt;v2 距离是6&lt;br&gt;&lt;br&gt;&lt;/div&gt;&lt;div&gt;从v1出发&lt;br&gt;到v0的最短路径是v1-&amp;gt;v2-&amp;gt;v0 距离是5&lt;/div&gt;&lt;div&gt;到v2的最短路径是v1-&amp;gt;v2 距离是2&lt;/div&gt;&lt;div&gt;&lt;br&gt;&lt;/div&gt;&lt;div&gt;从v2出发&lt;/div&gt;&lt;div&gt;到v0的最短路径是v2-&amp;gt;v0 距离是3&lt;/div&gt;&lt;div&gt;到v1的最短路径是v2-&amp;gt;v0-&amp;gt;v1 距离是7&lt;/div&gt;" style="text;html=1;align=left;verticalAlign=middle;whiteSpace=wrap;rounded=0;" vertex="1" parent="1">
          <mxGeometry x="160" y="1940" width="310" height="210" as="geometry" />
        </mxCell>
      </root>
    </mxGraphModel>
  </diagram>
</mxfile>
